<svg width="24" height="24" viewBox="0 0 24 24" fill="none" xmlns="http://www.w3.org/2000/svg">
<path d="M14.4277 18.6806C14.8071 18.6992 15.1191 19.003 15.1396 19.3905C15.1612 19.8039 14.843 20.1567 14.4297 20.1786L13.8379 20.204C13.6407 20.2116 13.4479 20.2187 13.2588 20.2284C12.8691 20.2484 12.385 20.2406 12.0488 20.2489C11.6273 20.2595 11.1989 20.2491 10.8115 20.2392C10.4108 20.2289 10.0013 20.2083 9.6123 20.1884C9.19867 20.1672 8.8802 19.8149 8.90137 19.4013C8.92146 19.0136 9.23264 18.7092 9.6123 18.6903H9.68848L10.8496 18.7402C11.2418 18.7502 11.6337 18.7594 12.0117 18.7499C12.4752 18.7383 12.7917 18.7504 13.1816 18.7304C13.3822 18.7201 13.5853 18.7125 13.7803 18.705C13.9771 18.6975 14.1671 18.6902 14.3506 18.6806H14.4277Z" fill="black"/>
<path d="M12.7207 3.7382C12.7267 3.73869 12.737 3.73971 12.749 3.74113C12.7537 3.74171 12.7621 3.74429 12.7734 3.74601C12.8662 3.74937 13.0135 3.75457 13.2402 3.76066C13.6542 3.77186 13.9807 4.11627 13.9697 4.53019C13.9585 4.94401 13.614 5.2706 13.2002 5.25969C12.8307 5.24977 12.6501 5.24366 12.5703 5.23918C12.5657 5.23892 12.5595 5.23767 12.5527 5.23722C12.4548 5.2381 12.292 5.24015 12.0303 5.24015C11.6288 5.24015 11.2377 5.2402 10.8486 5.24992C10.4349 5.26016 10.0908 4.93314 10.0801 4.51945C10.0697 4.10537 10.3974 3.76125 10.8115 3.7509C11.2224 3.74063 11.6319 3.74015 12.0303 3.74015C12.287 3.74015 12.4415 3.73992 12.5303 3.73918C12.5376 3.73867 12.5427 3.73729 12.5439 3.73722C12.5561 3.7366 12.5669 3.73545 12.5742 3.73527C12.5894 3.73491 12.6048 3.73527 12.6172 3.73527C12.6271 3.73527 12.6786 3.73476 12.7207 3.7382Z" fill="black"/>
<path fill-rule="evenodd" clip-rule="evenodd" d="M6.87012 1.03605C9.99388 0.659593 13.9854 0.66 17.1123 1.03508L17.1133 1.0341L17.1162 1.03508C17.1207 1.03558 17.1254 1.03552 17.1299 1.03605L17.1289 1.03703C18.8072 1.20881 20.1114 2.54578 20.2461 4.20695L20.3145 4.94621C20.4613 6.69423 20.5322 8.58468 20.5498 10.5136V13.4941C20.5397 15.6865 20.4386 17.8438 20.2471 19.7861L20.248 19.787C20.1205 21.468 18.8106 22.8015 17.1289 22.9736L17.1299 22.9745C17.1254 22.9751 17.1207 22.975 17.1162 22.9755L17.1133 22.9765L17.1123 22.9755C13.9854 23.3506 9.99387 23.351 6.87012 22.9745C5.18696 22.8017 3.87947 21.4552 3.75195 19.787L3.75293 19.7861C3.56128 17.8515 3.47027 15.6941 3.4502 13.497V10.5136L3.47949 8.87101C3.5225 7.24167 3.60923 5.66047 3.75391 4.20597C3.88906 2.53362 5.19478 1.20799 6.87012 1.03605ZM16.9502 2.52531C13.9399 2.16253 10.0601 2.16253 7.0498 2.52531C7.04434 2.52597 7.03868 2.52672 7.0332 2.52726C6.06281 2.62211 5.32036 3.38337 5.24805 4.33683C5.2476 4.34255 5.24666 4.34871 5.24609 4.35441C5.05904 6.23497 4.97006 8.3516 4.9502 10.5273V13.4833L4.97852 15.1015C5.01377 16.4358 5.07873 17.7299 5.18066 18.9403L5.24609 19.6562L5.24805 19.6737C5.3161 20.5602 5.97472 21.292 6.85449 21.4579L7.0332 21.4843L7.0498 21.4853C10.0601 21.848 13.9399 21.8481 16.9502 21.4853C16.9556 21.4846 16.9614 21.4848 16.9668 21.4843C17.937 21.3894 18.6795 20.627 18.752 19.6737L18.7539 19.6562C18.9411 17.7644 19.0398 15.6494 19.0498 13.4902V10.5273L19.0215 8.91105C18.9792 7.31229 18.8942 5.7726 18.7539 4.35441C18.7534 4.34906 18.7524 4.34318 18.752 4.33781C18.6798 3.39197 17.9351 2.62204 16.9668 2.52726C16.9614 2.52673 16.9556 2.52596 16.9502 2.52531Z" fill="black"/>
<path d="M 1.47 21.47 L 21.47 1.47 A 0.75 0.75 0 0 1 22.53 2.53 L 2.53 22.53 A 0.75 0.75 0 0 1 1.47 21.47 Z" fill="black"/>
</svg>
